<svg width="54" height="37" viewBox="0 0 54 37" fill="none" xmlns="http://www.w3.org/2000/svg">
<path d="M25.76 18.576C25.76 21.616 25.432 24.256 24.776 26.496C24.12 28.736 23.216 30.592 22.064 32.064C20.912 33.52 19.544 34.608 17.96 35.328C16.392 36.032 14.696 36.384 12.872 36.384C11.048 36.384 9.352 36.032 7.784 35.328C6.216 34.608 4.864 33.52 3.728 32.064C2.592 30.592 1.696 28.736 1.04 26.496C0.4 24.256 0.08 21.616 0.08 18.576C0.08 15.536 0.4 12.904 1.04 10.68C1.696 8.44 2.592 6.592 3.728 5.136C4.864 3.664 6.216 2.576 7.784 1.872C9.352 1.152 11.048 0.791997 12.872 0.791997C14.696 0.791997 16.392 1.152 17.96 1.872C19.544 2.576 20.912 3.664 22.064 5.136C23.216 6.592 24.12 8.44 24.776 10.68C25.432 12.904 25.76 15.536 25.76 18.576ZM18.92 18.576C18.92 16.112 18.744 14.08 18.392 12.48C18.056 10.88 17.608 9.616 17.048 8.688C16.488 7.76 15.84 7.112 15.104 6.744C14.384 6.376 13.64 6.192 12.872 6.192C12.104 6.192 11.36 6.376 10.64 6.744C9.936 7.112 9.304 7.76 8.744 8.688C8.2 9.616 7.76 10.88 7.424 12.48C7.088 14.08 6.92 16.112 6.92 18.576C6.92 21.056 7.088 23.096 7.424 24.696C7.76 26.296 8.2 27.56 8.744 28.488C9.304 29.416 9.936 30.064 10.64 30.432C11.36 30.8 12.104 30.984 12.872 30.984C13.64 30.984 14.384 30.8 15.104 30.432C15.84 30.064 16.488 29.416 17.048 28.488C17.608 27.56 18.056 26.296 18.392 24.696C18.744 23.096 18.92 21.056 18.92 18.576ZM37.9958 13.656C38.7158 13.512 39.4038 13.408 40.0598 13.344C40.7318 13.28 41.3798 13.248 42.0038 13.248C43.8278 13.248 45.4358 13.528 46.8278 14.088C48.2358 14.632 49.4118 15.384 50.3558 16.344C51.3158 17.304 52.0358 18.432 52.5157 19.728C52.9958 21.024 53.2358 22.416 53.2358 23.904C53.2358 25.76 52.9078 27.456 52.2518 28.992C51.5958 30.512 50.6838 31.824 49.5158 32.928C48.3638 34.016 46.9798 34.864 45.3638 35.472C43.7638 36.08 42.0118 36.384 40.1078 36.384C39.0038 36.384 37.9478 36.264 36.9398 36.024C35.9318 35.8 34.9878 35.496 34.1078 35.112C33.2438 34.712 32.4358 34.256 31.6838 33.744C30.9318 33.232 30.2598 32.696 29.6678 32.136L31.7078 29.352C32.1398 28.76 32.6998 28.464 33.3878 28.464C33.8198 28.464 34.2438 28.592 34.6598 28.848C35.0758 29.104 35.5478 29.392 36.0758 29.712C36.6038 30.016 37.2198 30.296 37.9238 30.552C38.6278 30.808 39.4838 30.936 40.4918 30.936C41.5318 30.936 42.4358 30.768 43.2038 30.432C43.9718 30.08 44.6038 29.608 45.0998 29.016C45.6118 28.408 45.9878 27.696 46.2278 26.88C46.4838 26.048 46.6118 25.16 46.6118 24.216C46.6118 22.408 46.0918 21.016 45.0518 20.04C44.0278 19.048 42.5318 18.552 40.5638 18.552C38.9478 18.552 37.3238 18.856 35.6918 19.464L31.5878 18.312L34.5158 1.176H51.9878V3.96C51.9878 4.424 51.9158 4.848 51.7718 5.232C51.6438 5.6 51.4198 5.928 51.0998 6.216C50.7958 6.488 50.3958 6.704 49.8998 6.864C49.4198 7.008 48.8278 7.08 48.1238 7.08H39.1238L37.9958 13.656Z" fill="#FF3F3A"/>
</svg>
