<svg width="54" height="36" viewBox="0 0 54 36" fill="none" xmlns="http://www.w3.org/2000/svg">
<path d="M23.008 30.128V35H3.472V30.128H10.384V11.072C10.384 10.656 10.392 10.232 10.408 9.8C10.424 9.368 10.448 8.928 10.48 8.48L5.92 12.272C5.6 12.512 5.288 12.664 4.984 12.728C4.68 12.792 4.392 12.8 4.12 12.752C3.848 12.688 3.608 12.592 3.4 12.464C3.192 12.32 3.032 12.176 2.92 12.032L0.832 9.224L11.536 0.151999H16.984V30.128H23.008ZM39.8518 12.68L38.7958 13.952C39.4038 13.68 40.0598 13.472 40.7638 13.328C41.4678 13.184 42.2278 13.112 43.0438 13.112C44.3398 13.112 45.6038 13.328 46.8358 13.76C48.0678 14.192 49.1638 14.84 50.1238 15.704C51.0838 16.568 51.8518 17.656 52.4278 18.968C53.0198 20.264 53.3158 21.792 53.3158 23.552C53.3158 25.168 53.0118 26.696 52.4038 28.136C51.8118 29.576 50.9638 30.832 49.8598 31.904C48.7718 32.976 47.4598 33.824 45.9238 34.448C44.4038 35.072 42.7078 35.384 40.8358 35.384C38.9318 35.384 37.2278 35.088 35.7238 34.496C34.2198 33.888 32.9398 33.04 31.8838 31.952C30.8278 30.864 30.0198 29.568 29.4598 28.064C28.8998 26.544 28.6198 24.872 28.6198 23.048C28.6198 21.368 28.9478 19.664 29.6038 17.936C30.2758 16.208 31.2918 14.432 32.6518 12.608L40.7398 1.712C41.0598 1.296 41.5318 0.935998 42.1558 0.631999C42.7798 0.327998 43.4918 0.175998 44.2918 0.175998H50.1718L39.8518 12.68ZM40.7158 30.056C41.5798 30.056 42.3798 29.904 43.1158 29.6C43.8518 29.296 44.4838 28.872 45.0118 28.328C45.5398 27.784 45.9558 27.152 46.2598 26.432C46.5638 25.696 46.7158 24.896 46.7158 24.032C46.7158 23.088 46.5718 22.24 46.2838 21.488C45.9958 20.736 45.5878 20.104 45.0598 19.592C44.5318 19.064 43.8998 18.664 43.1638 18.392C42.4278 18.12 41.6118 17.984 40.7158 17.984C39.8678 17.984 39.0918 18.136 38.3878 18.44C37.6838 18.728 37.0758 19.144 36.5638 19.688C36.0678 20.216 35.6758 20.848 35.3878 21.584C35.1158 22.32 34.9798 23.128 34.9798 24.008C34.9798 24.92 35.0998 25.752 35.3398 26.504C35.5798 27.24 35.9398 27.872 36.4198 28.4C36.8998 28.928 37.4918 29.336 38.1958 29.624C38.9158 29.912 39.7558 30.056 40.7158 30.056Z" fill="#FF3F3A"/>
</svg>
