<svg width="55" height="36" viewBox="0 0 55 36" fill="none" xmlns="http://www.w3.org/2000/svg">
<path d="M22.496 29.928C23.216 29.928 23.776 30.128 24.176 30.528C24.592 30.928 24.8 31.456 24.8 32.112V36H0.656V33.84C0.656 33.424 0.744 32.976 0.92 32.496C1.096 32 1.392 31.552 1.808 31.152L12.128 20.808C13.008 19.928 13.784 19.088 14.456 18.288C15.128 17.472 15.688 16.68 16.136 15.912C16.584 15.128 16.92 14.336 17.144 13.536C17.368 12.736 17.48 11.896 17.48 11.016C17.48 9.464 17.08 8.288 16.28 7.488C15.48 6.672 14.352 6.264 12.896 6.264C12.256 6.264 11.664 6.36 11.12 6.552C10.592 6.728 10.112 6.976 9.68 7.296C9.264 7.616 8.904 7.992 8.6 8.424C8.296 8.856 8.072 9.328 7.928 9.84C7.64 10.64 7.248 11.176 6.752 11.448C6.272 11.704 5.584 11.76 4.688 11.616L1.184 10.992C1.44 9.296 1.92 7.808 2.624 6.528C3.328 5.248 4.208 4.184 5.264 3.336C6.32 2.488 7.528 1.856 8.888 1.44C10.248 1.008 11.712 0.791997 13.28 0.791997C14.928 0.791997 16.424 1.04 17.768 1.536C19.128 2.016 20.288 2.696 21.248 3.576C22.208 4.44 22.952 5.488 23.48 6.72C24.008 7.952 24.272 9.312 24.272 10.8C24.272 12.08 24.088 13.264 23.72 14.352C23.352 15.44 22.848 16.48 22.208 17.472C21.584 18.448 20.856 19.4 20.024 20.328C19.192 21.256 18.312 22.192 17.384 23.136L9.992 30.696C10.808 30.456 11.616 30.272 12.416 30.144C13.216 30 13.968 29.928 14.672 29.928H22.496ZM44.7398 22.704V12.336C44.7398 11.792 44.7558 11.216 44.7878 10.608C44.8358 9.984 44.8998 9.336 44.9798 8.664L34.8997 22.704H44.7398ZM54.5318 22.704V26.448C54.5318 26.8 54.4118 27.104 54.1718 27.36C53.9478 27.6 53.6278 27.72 53.2118 27.72H50.4998V36H44.7398V27.72H30.3638C29.9478 27.72 29.5638 27.592 29.2118 27.336C28.8758 27.08 28.6678 26.744 28.5878 26.328L27.8918 23.016L44.2118 1.152H50.4998V22.704H54.5318Z" fill="#FF3F3A"/>
</svg>
