<svg width="106" height="225" viewBox="0 0 106 225" fill="none" xmlns="http://www.w3.org/2000/svg">
<g opacity="0.8" clip-path="url(#clip0_2234_9590)">
<path d="M4.48431 58.711C5.65159 59.608 5.85204 61.1592 4.95203 62.3303C4.05201 63.5015 2.50153 63.7071 1.33425 62.81C0.166965 61.913 -0.0334793 60.3619 0.866537 59.1907C1.76655 58.0195 3.4143 57.8887 4.48431 58.711Z" fill="#FFCF2D"/>
<path d="M17.9096 41.2413C19.0769 42.1383 19.2773 43.6894 18.3773 44.8606C17.4773 46.0318 15.9268 46.2374 14.7595 45.3403C13.5923 44.4433 13.3918 42.8921 14.2918 41.721C15.1918 40.5498 16.8396 40.419 17.9096 41.2413Z" fill="#FFCF2D"/>
<path d="M31.3349 23.7715C32.5022 24.6686 32.7026 26.2197 31.8026 27.3909C30.9026 28.562 29.3521 28.7676 28.1848 27.8706C27.0176 26.9736 26.8171 25.4224 27.7171 24.2513C28.5421 23.1777 30.2649 22.9493 31.3349 23.7715Z" fill="#FFCF2D"/>
<path d="M5.62786 87.2208C6.79515 88.1178 6.99559 89.6689 6.09558 90.8401C5.19556 92.0113 3.64509 92.2169 2.47781 91.3198C1.31052 90.4228 1.11007 88.8716 2.01009 87.7005C2.9101 86.5293 4.46058 86.3237 5.62786 87.2208Z" fill="#FFCF2D"/>
<path d="M18.978 69.8487C20.1452 70.7457 20.3457 72.2969 19.4457 73.468C18.5457 74.6392 16.9952 74.8448 15.8279 73.9477C14.6606 73.0507 14.4602 71.4996 15.3602 70.3284C16.2602 69.1572 17.8107 68.9517 18.978 69.8487Z" fill="#FFCF2D"/>
<path d="M32.4033 52.3789C33.5705 53.276 33.771 54.8271 32.871 55.9983C31.971 57.1695 30.4205 57.3751 29.2532 56.478C28.0859 55.581 27.8855 54.0298 28.7855 52.8587C29.6855 51.6875 31.236 51.4819 32.4033 52.3789Z" fill="#FFCF2D"/>
<path d="M45.8285 34.9092C46.9958 35.8063 47.1963 37.3574 46.2963 38.5286C45.3962 39.6997 43.8458 39.9053 42.6785 39.0083C41.5112 38.1113 41.3108 36.5601 42.2108 35.3889C43.0358 34.3154 44.6613 34.0122 45.8285 34.9092Z" fill="#FFCF2D"/>
<path d="M2.44474 1.5694C3.61202 2.46644 3.81248 4.01757 2.91247 5.18873C2.01246 6.35988 0.461981 6.56548 -0.705302 5.66845C-1.87258 4.77141 -2.07303 3.22026 -1.17302 2.0491C-0.348009 0.975542 1.27746 0.672364 2.44474 1.5694Z" fill="#FFCF2D"/>
<path d="M3.51312 30.1778C4.6804 31.0748 4.88085 32.626 3.98083 33.7971C3.08081 34.9683 1.53034 35.1739 0.363058 34.2768C-0.804225 33.3798 -1.00468 31.8287 -0.10466 30.6575C0.795356 29.4863 2.34584 29.2807 3.51312 30.1778Z" fill="#FFCF2D"/>
<path d="M16.9384 12.7081C18.1057 13.6051 18.3061 15.1562 17.4061 16.3274C16.5061 17.4986 14.9556 17.7042 13.7884 16.8071C12.6211 15.9101 12.4206 14.3589 13.3206 13.1878C14.1457 12.1142 15.7711 11.811 16.9384 12.7081Z" fill="#FFCF2D"/>
<path d="M6.59954 115.755C7.76682 116.652 7.96727 118.203 7.06725 119.374C6.16724 120.545 4.61677 120.751 3.44948 119.854C2.2822 118.957 2.08175 117.406 2.98177 116.235C3.80678 115.161 5.52953 114.933 6.59954 115.755Z" fill="#FFCF2D"/>
<path d="M20.0248 98.2842C21.1921 99.1813 21.3926 100.732 20.4925 101.904C19.5925 103.075 18.0421 103.28 16.8748 102.383C15.7075 101.486 15.507 99.9351 16.4071 98.7639C17.3071 97.5928 18.9548 97.4619 20.0248 98.2842Z" fill="#FFCF2D"/>
<path d="M33.3749 80.9121C34.5422 81.8092 34.7427 83.3603 33.8427 84.5315C32.9426 85.7027 31.3922 85.9083 30.2249 85.0112C29.0576 84.1142 28.8571 82.563 29.7572 81.3919C30.6572 80.2207 32.3049 80.0899 33.3749 80.9121Z" fill="#FFCF2D"/>
<path d="M46.8002 63.4424C47.9675 64.3395 48.168 65.8906 47.2679 67.0618C46.3679 68.2329 44.8174 68.4385 43.6502 67.5415C42.4829 66.6445 42.2824 65.0933 43.1824 63.9221C44.0825 62.751 45.7302 62.6201 46.8002 63.4424Z" fill="#FFCF2D"/>
<path d="M60.2255 45.9727C61.3928 46.8697 61.5932 48.4209 60.6932 49.592C59.7932 50.7632 58.2427 50.9688 57.0755 50.0718C55.9082 49.1747 55.7077 47.6236 56.6077 46.4524C57.4328 45.3789 59.1555 45.1504 60.2255 45.9727Z" fill="#FFCF2D"/>
<path d="M8.13561 147.982C9.00547 146.85 8.79607 145.229 7.66789 144.362C6.53972 143.495 4.91999 143.71 4.05013 144.842C3.18026 145.974 3.38966 147.594 4.51784 148.461C5.64601 149.328 7.26575 149.114 8.13561 147.982Z" fill="#FFCF2D"/>
<path d="M21.0932 126.893C22.2605 127.79 22.4609 129.341 21.5609 130.512C20.6609 131.683 19.1104 131.889 17.9431 130.992C16.7758 130.095 16.5754 128.544 17.4754 127.372C18.3004 126.299 19.9259 125.996 21.0932 126.893Z" fill="#FFCF2D"/>
<path d="M34.5185 109.423C35.6858 110.32 35.8862 111.871 34.9862 113.042C34.0862 114.213 32.5357 114.419 31.3684 113.522C30.2011 112.625 30.0007 111.074 30.9007 109.903C31.8007 108.731 33.3512 108.526 34.5185 109.423Z" fill="#FFCF2D"/>
<path d="M47.8686 92.0508C49.0359 92.9479 49.2363 94.499 48.3363 95.6702C47.4363 96.8413 45.8858 97.0469 44.7185 96.1499C43.5512 95.2529 43.3508 93.7017 44.2508 92.5305C45.1508 91.3594 46.7013 91.1538 47.8686 92.0508Z" fill="#FFCF2D"/>
<path d="M61.7616 78.2004C62.6314 77.0685 62.4221 75.4481 61.2939 74.5811C60.1657 73.7141 58.546 73.9289 57.6761 75.0608C56.8062 76.1927 57.0156 77.8132 58.1438 78.6802C59.272 79.5471 60.8917 79.3324 61.7616 78.2004Z" fill="#FFCF2D"/>
<path d="M74.7192 57.1114C75.8864 58.0084 76.0869 59.5595 75.1869 60.7307C74.2869 61.9019 72.7364 62.1075 71.5691 61.2104C70.4018 60.3134 70.2014 58.7622 71.1014 57.5911C71.9264 56.5175 73.5519 56.2143 74.7192 57.1114Z" fill="#FFCF2D"/>
<path d="M8.73626 172.971C9.90355 173.868 10.104 175.419 9.20398 176.59C8.30396 177.761 6.75349 177.967 5.58621 177.07C4.41893 176.173 4.21847 174.622 5.11848 173.45C6.0185 172.279 7.56898 172.074 8.73626 172.971Z" fill="#FFCF2D"/>
<path d="M22.1616 155.501C23.3288 156.398 23.5293 157.949 22.6293 159.12C21.7293 160.292 20.1788 160.497 19.0115 159.6C17.8442 158.703 17.6438 157.152 18.5438 155.981C19.4438 154.81 20.9943 154.604 22.1616 155.501Z" fill="#FFCF2D"/>
<path d="M35.5868 138.031C36.7541 138.928 36.9546 140.479 36.0546 141.651C35.1545 142.822 33.6041 143.027 32.4368 142.13C31.2695 141.233 31.0691 139.682 31.9691 138.511C32.7941 137.437 34.4196 137.134 35.5868 138.031Z" fill="#FFCF2D"/>
<path d="M49.0121 120.561C50.1794 121.458 50.3799 123.009 49.4799 124.18C48.5798 125.351 47.0294 125.557 45.8621 124.66C44.6948 123.763 44.4943 122.211 45.3944 121.04C46.2944 119.869 47.8449 119.664 49.0121 120.561Z" fill="#FFCF2D"/>
<path d="M62.3622 103.189C63.5295 104.086 63.73 105.637 62.83 106.808C61.9299 107.979 60.3795 108.185 59.2122 107.288C58.0449 106.391 57.8444 104.839 58.7445 103.668C59.6445 102.497 61.195 102.291 62.3622 103.189Z" fill="#FFCF2D"/>
<path d="M75.7875 85.7188C76.9548 86.6158 77.1553 88.167 76.2552 89.3381C75.3552 90.5093 73.8048 90.7149 72.6375 89.8179C71.4702 88.9208 71.2697 87.3697 72.1698 86.1985C73.0698 85.0274 74.6203 84.8218 75.7875 85.7188Z" fill="#FFCF2D"/>
<path d="M89.2128 68.2491C90.3801 69.1461 90.5806 70.6973 89.6806 71.8684C88.7805 73.0396 87.2301 73.2452 86.0628 72.3481C84.8955 71.4511 84.695 69.8999 85.5951 68.7288C86.4201 67.6552 88.0455 67.352 89.2128 68.2491Z" fill="#FFCF2D"/>
<path d="M9.78265 201.406C10.9499 202.303 11.1504 203.854 10.2504 205.026C9.35035 206.197 7.79988 206.402 6.63259 205.505C5.46531 204.608 5.26486 203.057 6.16487 201.886C6.98989 200.812 8.71264 200.584 9.78265 201.406Z" fill="#FFCF2D"/>
<path d="M23.1327 184.034C24.3 184.931 24.5005 186.482 23.6005 187.654C22.7004 188.825 21.15 189.03 19.9827 188.133C18.8154 187.236 18.615 185.685 19.515 184.514C20.415 183.343 22.0627 183.212 23.1327 184.034Z" fill="#FFCF2D"/>
<path d="M36.558 166.564C37.7253 167.462 37.9258 169.013 37.0257 170.184C36.1257 171.355 34.5753 171.561 33.408 170.664C32.2407 169.767 32.0402 168.215 32.9403 167.044C33.8403 165.873 35.488 165.742 36.558 166.564Z" fill="#FFCF2D"/>
<path d="M49.9833 149.094C51.1506 149.991 51.3511 151.542 50.451 152.713C49.551 153.884 48.0006 154.09 46.8333 153.193C45.666 152.296 45.4655 150.745 46.3656 149.574C47.1906 148.5 48.9133 148.272 49.9833 149.094Z" fill="#FFCF2D"/>
<path d="M63.4086 131.624C64.5759 132.521 64.7763 134.072 63.8763 135.243C62.9763 136.415 61.4258 136.62 60.2586 135.723C59.0913 134.826 58.8908 133.275 59.7908 132.104C60.6909 130.933 62.3386 130.802 63.4086 131.624Z" fill="#FFCF2D"/>
<path d="M76.7587 114.252C77.926 115.149 78.1264 116.7 77.2264 117.871C76.3264 119.042 74.7759 119.248 73.6087 118.351C72.4414 117.454 72.2409 115.903 73.141 114.732C74.041 113.561 75.6887 113.43 76.7587 114.252Z" fill="#FFCF2D"/>
<path d="M90.184 96.7823C91.3513 97.6793 91.5518 99.2305 90.6517 100.402C89.7517 101.573 88.2012 101.778 87.034 100.881C85.8667 99.9843 85.6662 98.4332 86.5662 97.262C87.4663 96.0908 89.114 95.96 90.184 96.7823Z" fill="#FFCF2D"/>
<path d="M103.609 79.3126C104.777 80.2096 104.977 81.7607 104.077 82.9319C103.177 84.103 101.627 84.3086 100.459 83.4116C99.292 82.5146 99.0915 80.9634 99.9915 79.7923C100.817 78.7187 102.539 78.4903 103.609 79.3126Z" fill="#FFCF2D"/>
</g>
<defs>
<clipPath id="clip0_2234_9590">
<rect width="181.184" height="132.739" fill="white" transform="translate(-110 143.662) rotate(-52.4584)"/>
</clipPath>
</defs>
</svg>
